<?xml version="1.0" encoding="utf-8"?>
<!-- Generator: Adobe Illustrator 21.1.0, SVG Export Plug-In . SVG Version: 6.00 Build 0)  -->
<svg version="1.1" id="Layer_1" xmlns="http://www.w3.org/2000/svg" xmlns:xlink="http://www.w3.org/1999/xlink" x="0px" y="0px"
	 viewBox="0 0 504.3 108.8" width="504.3" height="108.8" style="enable-background:new 0 0 504.3 108.8;" xml:space="preserve">
<style type="text/css">
	.st0{fill:#CDDC39;}
</style>
<g>
	<path class="st0" d="M173.6,50.2c-0.7-6.7-3.2-11.9-7.6-15.5c-4.4-3.6-10.5-5.5-18.2-5.5c-3.6,0-6.9,0.6-10,1.9
		c-3.1,1.2-5.8,3-8.2,5.4c-2.3,2.4-4.2,5.2-5.5,8.6c-1.3,3.3-2,7-2,11.1c0,4.1,0.6,7.9,1.9,11.2c1.2,3.4,3,6.2,5.4,8.6
		c2.4,2.4,5.3,4.2,8.6,5.4c3.4,1.2,7.2,1.9,11.3,1.9c6.8,0,12.4-1.9,16.8-5.7c4.4-3.8,7-9,7.7-15.6h-16.2c-0.3,2.6-1.2,4.7-2.6,6.3
		c-1.4,1.6-3.4,2.4-6,2.4c-2,0-3.7-0.4-5.1-1.1c-1.4-0.7-2.4-1.8-3.1-3.1c-0.7-1.3-1.2-2.8-1.5-4.4c-0.3-1.6-0.4-3.4-0.4-5.4
		c0-4.9,0.8-8.6,2.5-11.2c1.7-2.5,4-3.8,7-3.8c2.6,0,4.7,0.7,6.3,2.2c1.6,1.5,2.5,3.5,2.8,6.2H173.6z"/>
	<rect x="176.3" y="30.6" class="st0" width="14.8" height="51.4"/>
	<path class="st0" d="M193.3,63.7c0,6.2,2,10.9,6,14.3c4,3.4,9.1,5,15.3,5c3,0,5.9-0.4,8.5-1.2c2.6-0.8,4.8-2.1,6.7-3.7
		c1.9-1.7,3.4-3.8,4.5-6.3c1.1-2.5,1.6-5.5,1.6-8.8c0-5.8-1.9-10.5-5.7-14.1c-3.8-3.5-9-5.3-15.6-5.3c-6.4,0-11.6,1.8-15.4,5.3
		C195.2,52.4,193.3,57.3,193.3,63.7z M214.7,53.5c2,0,3.5,0.9,4.6,2.6c1.1,1.8,1.7,4,1.7,6.8c0,3.4-0.6,6-1.7,7.6
		c-1.1,1.7-2.7,2.5-4.7,2.5c-2,0-3.6-0.8-4.7-2.5c-1.1-1.7-1.7-4.2-1.7-7.6c0-1.1,0.1-2.3,0.4-3.4c0.2-1.1,0.6-2.1,1.1-3
		c0.5-0.9,1.2-1.6,2-2.2C212.5,53.8,213.5,53.5,214.7,53.5z"/>
	<path class="st0" d="M279.2,58.8c-0.2-2.7-1-5-2.2-7c-1.2-2-2.8-3.6-4.6-4.8c-1.9-1.2-4-2.1-6.3-2.7c-2.3-0.6-4.8-0.9-7.4-0.9
		c-3.1,0-5.9,0.5-8.6,1.4c-2.6,0.9-4.9,2.2-6.8,4c-1.9,1.7-3.4,3.9-4.4,6.3c-1,2.5-1.6,5.3-1.6,8.5c0,3.1,0.5,5.8,1.6,8.3
		c1.1,2.4,2.6,4.5,4.5,6.1c1.9,1.6,4.2,2.9,6.8,3.7c2.6,0.9,5.4,1.3,8.5,1.3c2.7,0,5.2-0.3,7.5-0.9c2.4-0.6,4.4-1.4,6.2-2.6
		c1.9-1.3,3.5-2.9,4.7-5c1.2-2,2-4.4,2.2-7.1h-15c-0.2,1.7-0.8,3-1.7,4c-0.9,1-2.3,1.5-4.1,1.5c-2.1,0-3.8-0.8-4.9-2.5
		c-1.1-1.7-1.6-3.9-1.6-6.8c0-1.3,0.1-2.5,0.2-3.6c0.2-1.1,0.5-2.2,1-3.2c0.5-1,1.1-1.8,2-2.4c0.9-0.6,1.9-0.9,3.3-0.9
		c1.7,0,2.9,0.5,3.9,1.5c1,1,1.5,2.2,1.6,3.9H279.2z"/>
	<polygon class="st0" points="299.3,68.7 307.3,82 325.2,82 309.5,59.1 323.4,44.6 306,44.6 296.5,56 296.5,30.6 281.7,30.6 
		281.7,82 296.5,82 296.5,71.5 	"/>
	<polygon class="st0" points="361.4,44.6 348.8,44.6 343.1,67.7 342.9,67.7 337.2,44.6 322.7,44.6 335.1,82 349.6,82 354.8,60.1 
		354.9,60.1 360.7,82 375.2,82 387.1,44.6 373,44.6 367.3,67.7 367.1,67.7 	"/>
	<path class="st0" d="M384.3,63.7c0,6.2,2,10.9,6,14.3c4,3.4,9.1,5,15.3,5c3,0,5.9-0.4,8.5-1.2c2.6-0.8,4.8-2.1,6.7-3.7
		c1.9-1.7,3.4-3.8,4.5-6.3c1.1-2.5,1.6-5.5,1.6-8.8c0-5.8-1.9-10.5-5.7-14.1c-3.8-3.5-9-5.3-15.6-5.3c-6.4,0-11.6,1.8-15.4,5.3
		C386.3,52.4,384.3,57.3,384.3,63.7z M405.7,53.5c2,0,3.5,0.9,4.6,2.6c1.1,1.8,1.7,4,1.7,6.8c0,3.4-0.6,6-1.7,7.6
		c-1.1,1.7-2.7,2.5-4.7,2.5c-2,0-3.6-0.8-4.7-2.5c-1.1-1.7-1.7-4.2-1.7-7.6c0-1.1,0.1-2.3,0.4-3.4c0.2-1.1,0.6-2.1,1.1-3
		c0.5-0.9,1.2-1.6,2-2.2C403.5,53.8,404.6,53.5,405.7,53.5z"/>
	<path class="st0" d="M428.9,82h14.8V69c0-3.9,0.7-6.8,2.2-8.4c1.5-1.7,3.8-2.5,6.9-2.5c0.5,0,1.2,0.1,2.1,0.3c0.5,0,0.8,0.1,1,0.1
		V43.7l-0.6-0.1c-0.6-0.1-1-0.1-1.3-0.1c-5.6,0-9.4,2.9-11.5,8.6h-0.1v-7.6h-13.5V82z"/>
	<polygon class="st0" points="475.7,68.7 483.7,82 501.5,82 485.9,59.1 499.8,44.6 482.4,44.6 472.9,56 472.9,30.6 458.1,30.6 
		458.1,82 472.9,82 472.9,71.5 	"/>
</g>
<g>
	<path class="st0" d="M91.2,17.3c-20.5-20.5-53.8-20.5-74.3,0c-20.5,20.5-20.5,53.8,0,74.3c20.5,20.5,53.8,20.5,74.3,0
		C111.7,71.1,111.7,37.8,91.2,17.3z M71.3,78.5L54.8,62l-8.9,8.9c-2.1,2.1-5,3.4-8.3,3.4c-6.4,0-11.7-5.2-11.7-11.7
		c0-3.2,1.3-6.1,3.4-8.3l24.8-24.8l0,0c2.1-2.1,5-3.4,8.3-3.4c6.4,0,11.7,5.2,11.7,11.7c0,3.2-1.3,6.1-3.4,8.3l-8.9,8.9l16.5,16.5
		L71.3,78.5z"/>
	<ellipse transform="matrix(0.7071 -0.7071 0.7071 0.7071 -33.3183 44.9165)" class="st0" cx="37.6" cy="62.7" rx="5.8" ry="5.8"/>
	<ellipse transform="matrix(0.7071 -0.7071 0.7071 0.7071 -8.5621 55.1705)" class="st0" cx="62.3" cy="37.9" rx="5.8" ry="5.8"/>
	<circle class="st0" cx="62.3" cy="37.9" r="5.8"/>
	<circle class="st0" cx="37.6" cy="62.7" r="5.8"/>
</g>
</svg>